<mxfile host="app.diagrams.net" agent="Mozilla/5.0 (Windows NT 10.0; Win64; x64) AppleWebKit/537.36 (KHTML, like Gecko) Chrome/132.0.0.0 Safari/537.36" version="24.8.6">
  <diagram name="PÃ¡gina-1" id="zd22xw_ln7tEc9LlwZBK">
    <mxGraphModel dx="1562" dy="765" grid="1" gridSize="10" guides="1" tooltips="1" connect="1" arrows="1" fold="1" page="1" pageScale="1" pageWidth="827" pageHeight="1169" math="0" shadow="0">
      <root>
        <mxCell id="0" />
        <mxCell id="1" parent="0" />
        <mxCell id="Cltxf-kMbF5lOl4dQgeo-28" style="edgeStyle=orthogonalEdgeStyle;rounded=0;orthogonalLoop=1;jettySize=auto;html=1;" edge="1" parent="1" source="Cltxf-kMbF5lOl4dQgeo-3" target="Cltxf-kMbF5lOl4dQgeo-18">
          <mxGeometry relative="1" as="geometry" />
        </mxCell>
        <mxCell id="Cltxf-kMbF5lOl4dQgeo-37" style="edgeStyle=orthogonalEdgeStyle;rounded=0;orthogonalLoop=1;jettySize=auto;html=1;dashed=1;strokeColor=#994C00;" edge="1" parent="1" source="Cltxf-kMbF5lOl4dQgeo-3">
          <mxGeometry relative="1" as="geometry">
            <mxPoint x="760" y="750" as="targetPoint" />
            <Array as="points">
              <mxPoint x="620" y="450" />
              <mxPoint x="761" y="450" />
              <mxPoint x="761" y="750" />
            </Array>
          </mxGeometry>
        </mxCell>
        <mxCell id="Cltxf-kMbF5lOl4dQgeo-3" value="transactions-service" style="rounded=1;whiteSpace=wrap;html=1;fillColor=#d5e8d4;strokeColor=#82b366;" vertex="1" parent="1">
          <mxGeometry x="560" y="370" width="120" height="60" as="geometry" />
        </mxCell>
        <mxCell id="Cltxf-kMbF5lOl4dQgeo-39" style="edgeStyle=orthogonalEdgeStyle;rounded=0;orthogonalLoop=1;jettySize=auto;html=1;entryX=0.5;entryY=0;entryDx=0;entryDy=0;dashed=1;strokeColor=#994C00;" edge="1" parent="1" source="Cltxf-kMbF5lOl4dQgeo-4" target="Cltxf-kMbF5lOl4dQgeo-32">
          <mxGeometry relative="1" as="geometry">
            <Array as="points">
              <mxPoint x="620" y="350" />
              <mxPoint x="760" y="350" />
            </Array>
          </mxGeometry>
        </mxCell>
        <mxCell id="Cltxf-kMbF5lOl4dQgeo-4" value="customer-service" style="rounded=1;whiteSpace=wrap;html=1;fillColor=#d5e8d4;strokeColor=#82b366;" vertex="1" parent="1">
          <mxGeometry x="560" y="270" width="120" height="60" as="geometry" />
        </mxCell>
        <mxCell id="Cltxf-kMbF5lOl4dQgeo-5" style="edgeStyle=orthogonalEdgeStyle;rounded=0;orthogonalLoop=1;jettySize=auto;html=1;exitX=0.5;exitY=1;exitDx=0;exitDy=0;" edge="1" parent="1" source="Cltxf-kMbF5lOl4dQgeo-3" target="Cltxf-kMbF5lOl4dQgeo-3">
          <mxGeometry relative="1" as="geometry" />
        </mxCell>
        <mxCell id="Cltxf-kMbF5lOl4dQgeo-40" style="edgeStyle=orthogonalEdgeStyle;rounded=0;orthogonalLoop=1;jettySize=auto;html=1;entryX=0.5;entryY=0;entryDx=0;entryDy=0;dashed=1;strokeColor=#994C00;" edge="1" parent="1" source="Cltxf-kMbF5lOl4dQgeo-6" target="Cltxf-kMbF5lOl4dQgeo-32">
          <mxGeometry relative="1" as="geometry">
            <Array as="points">
              <mxPoint x="620" y="250" />
              <mxPoint x="760" y="250" />
            </Array>
          </mxGeometry>
        </mxCell>
        <mxCell id="Cltxf-kMbF5lOl4dQgeo-6" value="consulting-service" style="rounded=1;whiteSpace=wrap;html=1;fillColor=#d5e8d4;strokeColor=#82b366;" vertex="1" parent="1">
          <mxGeometry x="560" y="170" width="120" height="60" as="geometry" />
        </mxCell>
        <mxCell id="Cltxf-kMbF5lOl4dQgeo-10" style="edgeStyle=orthogonalEdgeStyle;rounded=0;orthogonalLoop=1;jettySize=auto;html=1;entryX=0;entryY=0.5;entryDx=0;entryDy=0;" edge="1" parent="1" source="Cltxf-kMbF5lOl4dQgeo-7" target="Cltxf-kMbF5lOl4dQgeo-6">
          <mxGeometry relative="1" as="geometry" />
        </mxCell>
        <mxCell id="Cltxf-kMbF5lOl4dQgeo-11" style="edgeStyle=orthogonalEdgeStyle;rounded=0;orthogonalLoop=1;jettySize=auto;html=1;entryX=0;entryY=0.5;entryDx=0;entryDy=0;" edge="1" parent="1" source="Cltxf-kMbF5lOl4dQgeo-7" target="Cltxf-kMbF5lOl4dQgeo-4">
          <mxGeometry relative="1" as="geometry" />
        </mxCell>
        <mxCell id="Cltxf-kMbF5lOl4dQgeo-12" style="edgeStyle=orthogonalEdgeStyle;rounded=0;orthogonalLoop=1;jettySize=auto;html=1;entryX=0.5;entryY=1;entryDx=0;entryDy=0;" edge="1" parent="1" source="Cltxf-kMbF5lOl4dQgeo-7" target="Cltxf-kMbF5lOl4dQgeo-9">
          <mxGeometry relative="1" as="geometry" />
        </mxCell>
        <mxCell id="Cltxf-kMbF5lOl4dQgeo-13" style="edgeStyle=orthogonalEdgeStyle;rounded=0;orthogonalLoop=1;jettySize=auto;html=1;entryX=0;entryY=0.5;entryDx=0;entryDy=0;" edge="1" parent="1" source="Cltxf-kMbF5lOl4dQgeo-7" target="Cltxf-kMbF5lOl4dQgeo-3">
          <mxGeometry relative="1" as="geometry" />
        </mxCell>
        <mxCell id="Cltxf-kMbF5lOl4dQgeo-14" style="edgeStyle=orthogonalEdgeStyle;rounded=0;orthogonalLoop=1;jettySize=auto;html=1;entryX=0;entryY=0.5;entryDx=0;entryDy=0;" edge="1" parent="1" source="Cltxf-kMbF5lOl4dQgeo-7" target="Cltxf-kMbF5lOl4dQgeo-2">
          <mxGeometry relative="1" as="geometry" />
        </mxCell>
        <mxCell id="Cltxf-kMbF5lOl4dQgeo-15" style="edgeStyle=orthogonalEdgeStyle;rounded=0;orthogonalLoop=1;jettySize=auto;html=1;entryX=0;entryY=0.5;entryDx=0;entryDy=0;" edge="1" parent="1" source="Cltxf-kMbF5lOl4dQgeo-7" target="Cltxf-kMbF5lOl4dQgeo-1">
          <mxGeometry relative="1" as="geometry" />
        </mxCell>
        <mxCell id="Cltxf-kMbF5lOl4dQgeo-7" value="Api Gateway" style="rounded=1;whiteSpace=wrap;html=1;" vertex="1" parent="1">
          <mxGeometry x="260" y="170" width="120" height="480" as="geometry" />
        </mxCell>
        <mxCell id="Cltxf-kMbF5lOl4dQgeo-8" value="Cliente" style="shape=umlActor;verticalLabelPosition=bottom;verticalAlign=top;html=1;outlineConnect=0;" vertex="1" parent="1">
          <mxGeometry x="90" y="340" width="30" height="60" as="geometry" />
        </mxCell>
        <mxCell id="Cltxf-kMbF5lOl4dQgeo-9" value="Config Server" style="shape=internalStorage;whiteSpace=wrap;html=1;backgroundOutline=1;fillColor=#dae8fc;strokeColor=#6c8ebf;" vertex="1" parent="1">
          <mxGeometry x="280" y="20" width="80" height="80" as="geometry" />
        </mxCell>
        <mxCell id="Cltxf-kMbF5lOl4dQgeo-16" style="edgeStyle=orthogonalEdgeStyle;rounded=0;orthogonalLoop=1;jettySize=auto;html=1;entryX=-0.015;entryY=0.519;entryDx=0;entryDy=0;entryPerimeter=0;" edge="1" parent="1" source="Cltxf-kMbF5lOl4dQgeo-8" target="Cltxf-kMbF5lOl4dQgeo-7">
          <mxGeometry relative="1" as="geometry" />
        </mxCell>
        <mxCell id="Cltxf-kMbF5lOl4dQgeo-22" value="LOCAL" style="swimlane;startSize=0;dashed=1;dashPattern=8 8;labelPosition=center;verticalLabelPosition=top;align=center;verticalAlign=bottom;" vertex="1" parent="1">
          <mxGeometry x="520" y="130" width="200" height="540" as="geometry" />
        </mxCell>
        <mxCell id="Cltxf-kMbF5lOl4dQgeo-1" value="accounts-service" style="rounded=1;whiteSpace=wrap;html=1;fillColor=#d5e8d4;strokeColor=#82b366;" vertex="1" parent="Cltxf-kMbF5lOl4dQgeo-22">
          <mxGeometry x="40" y="440" width="120" height="60" as="geometry" />
        </mxCell>
        <mxCell id="Cltxf-kMbF5lOl4dQgeo-2" value="credits-service" style="rounded=1;whiteSpace=wrap;html=1;fillColor=#d5e8d4;strokeColor=#82b366;" vertex="1" parent="Cltxf-kMbF5lOl4dQgeo-22">
          <mxGeometry x="40" y="340" width="120" height="60" as="geometry" />
        </mxCell>
        <mxCell id="Cltxf-kMbF5lOl4dQgeo-25" value="MONDO DB ATLAS" style="swimlane;startSize=0;dashed=1;dashPattern=8 8;labelPosition=center;verticalLabelPosition=top;align=center;verticalAlign=bottom;" vertex="1" parent="1">
          <mxGeometry x="780" y="130" width="300" height="540" as="geometry" />
        </mxCell>
        <mxCell id="Cltxf-kMbF5lOl4dQgeo-17" value="Collection&lt;br&gt;traces" style="shape=cylinder3;whiteSpace=wrap;html=1;boundedLbl=1;backgroundOutline=1;size=15;" vertex="1" parent="Cltxf-kMbF5lOl4dQgeo-25">
          <mxGeometry x="200" y="280" width="60" height="80" as="geometry" />
        </mxCell>
        <mxCell id="Cltxf-kMbF5lOl4dQgeo-19" value="Collection&lt;br&gt;customer" style="shape=cylinder3;whiteSpace=wrap;html=1;boundedLbl=1;backgroundOutline=1;size=15;" vertex="1" parent="Cltxf-kMbF5lOl4dQgeo-25">
          <mxGeometry x="70" y="130" width="60" height="80" as="geometry" />
        </mxCell>
        <mxCell id="Cltxf-kMbF5lOl4dQgeo-18" value="Collection&lt;br&gt;transaction" style="shape=cylinder3;whiteSpace=wrap;html=1;boundedLbl=1;backgroundOutline=1;size=15;" vertex="1" parent="Cltxf-kMbF5lOl4dQgeo-25">
          <mxGeometry x="70" y="230" width="60" height="80" as="geometry" />
        </mxCell>
        <mxCell id="Cltxf-kMbF5lOl4dQgeo-20" value="Collection&lt;br&gt;credits" style="shape=cylinder3;whiteSpace=wrap;html=1;boundedLbl=1;backgroundOutline=1;size=15;" vertex="1" parent="Cltxf-kMbF5lOl4dQgeo-25">
          <mxGeometry x="70" y="330" width="60" height="80" as="geometry" />
        </mxCell>
        <mxCell id="Cltxf-kMbF5lOl4dQgeo-21" value="Collection&lt;br&gt;accounts" style="shape=cylinder3;whiteSpace=wrap;html=1;boundedLbl=1;backgroundOutline=1;size=15;" vertex="1" parent="Cltxf-kMbF5lOl4dQgeo-25">
          <mxGeometry x="70" y="430" width="60" height="80" as="geometry" />
        </mxCell>
        <mxCell id="Cltxf-kMbF5lOl4dQgeo-27" style="edgeStyle=orthogonalEdgeStyle;rounded=0;orthogonalLoop=1;jettySize=auto;html=1;entryX=0;entryY=0.5;entryDx=0;entryDy=0;entryPerimeter=0;" edge="1" parent="1" source="Cltxf-kMbF5lOl4dQgeo-4" target="Cltxf-kMbF5lOl4dQgeo-19">
          <mxGeometry relative="1" as="geometry" />
        </mxCell>
        <mxCell id="Cltxf-kMbF5lOl4dQgeo-29" style="edgeStyle=orthogonalEdgeStyle;rounded=0;orthogonalLoop=1;jettySize=auto;html=1;entryX=0;entryY=0.5;entryDx=0;entryDy=0;entryPerimeter=0;" edge="1" parent="1" source="Cltxf-kMbF5lOl4dQgeo-2" target="Cltxf-kMbF5lOl4dQgeo-20">
          <mxGeometry relative="1" as="geometry" />
        </mxCell>
        <mxCell id="Cltxf-kMbF5lOl4dQgeo-30" style="edgeStyle=orthogonalEdgeStyle;rounded=0;orthogonalLoop=1;jettySize=auto;html=1;entryX=0;entryY=0.5;entryDx=0;entryDy=0;entryPerimeter=0;" edge="1" parent="1" source="Cltxf-kMbF5lOl4dQgeo-1" target="Cltxf-kMbF5lOl4dQgeo-21">
          <mxGeometry relative="1" as="geometry" />
        </mxCell>
        <mxCell id="Cltxf-kMbF5lOl4dQgeo-32" value="audit-service" style="rounded=1;whiteSpace=wrap;html=1;fillColor=#d5e8d4;strokeColor=#82b366;" vertex="1" parent="1">
          <mxGeometry x="700" y="750" width="120" height="60" as="geometry" />
        </mxCell>
        <mxCell id="Cltxf-kMbF5lOl4dQgeo-35" style="edgeStyle=orthogonalEdgeStyle;rounded=0;orthogonalLoop=1;jettySize=auto;html=1;entryX=0.5;entryY=0;entryDx=0;entryDy=0;dashed=1;strokeColor=#994C00;" edge="1" parent="1" source="Cltxf-kMbF5lOl4dQgeo-1" target="Cltxf-kMbF5lOl4dQgeo-32">
          <mxGeometry relative="1" as="geometry">
            <Array as="points">
              <mxPoint x="620" y="650" />
              <mxPoint x="760" y="650" />
            </Array>
          </mxGeometry>
        </mxCell>
        <mxCell id="Cltxf-kMbF5lOl4dQgeo-36" style="edgeStyle=orthogonalEdgeStyle;rounded=0;orthogonalLoop=1;jettySize=auto;html=1;entryX=0.5;entryY=0;entryDx=0;entryDy=0;dashed=1;strokeColor=#994C00;" edge="1" parent="1" source="Cltxf-kMbF5lOl4dQgeo-2" target="Cltxf-kMbF5lOl4dQgeo-32">
          <mxGeometry relative="1" as="geometry">
            <Array as="points">
              <mxPoint x="620" y="560" />
              <mxPoint x="760" y="560" />
            </Array>
          </mxGeometry>
        </mxCell>
        <mxCell id="Cltxf-kMbF5lOl4dQgeo-41" style="edgeStyle=orthogonalEdgeStyle;rounded=0;orthogonalLoop=1;jettySize=auto;html=1;entryX=0.5;entryY=1;entryDx=0;entryDy=0;entryPerimeter=0;" edge="1" parent="1" source="Cltxf-kMbF5lOl4dQgeo-32" target="Cltxf-kMbF5lOl4dQgeo-17">
          <mxGeometry relative="1" as="geometry" />
        </mxCell>
      </root>
    </mxGraphModel>
  </diagram>
</mxfile>
